<?xml version="1.0" encoding="utf-8"?>
<!-- Generator: Adobe Illustrator 17.0.0, SVG Export Plug-In . SVG Version: 6.00 Build 0)  -->
<!DOCTYPE svg PUBLIC "-//W3C//DTD SVG 1.1//EN" "http://www.w3.org/Graphics/SVG/1.1/DTD/svg11.dtd">
<svg version="1.1" xmlns="http://www.w3.org/2000/svg" xmlns:xlink="http://www.w3.org/1999/xlink" x="0px" y="0px"
	 width="150.459px" height="180.734px" viewBox="0 0 150.459 180.734" enable-background="new 0 0 150.459 180.734"
	 xml:space="preserve">
<g id="grd_x2B_circle">
	<linearGradient id="SVGID_1_" gradientUnits="userSpaceOnUse" x1="75.4495" y1="34.055" x2="75.4495" y2="176.055">
		<stop  offset="0" style="stop-color:#FFFFFF"/>
		<stop  offset="0.104" style="stop-color:#FAFAFA"/>
		<stop  offset="0.2277" style="stop-color:#ECECEC"/>
		<stop  offset="0.3614" style="stop-color:#D4D4D4"/>
		<stop  offset="0.5022" style="stop-color:#B2B2B2"/>
		<stop  offset="0.6486" style="stop-color:#878787"/>
		<stop  offset="0.7997" style="stop-color:#525252"/>
		<stop  offset="0.9519" style="stop-color:#151515"/>
		<stop  offset="1" style="stop-color:#000000"/>
	</linearGradient>
	<circle fill="url(#SVGID_1_)" stroke="#000000" stroke-width="4" stroke-miterlimit="10" cx="75.45" cy="78.45" r="71"/>
	<line fill="none" stroke="#000000" stroke-width="2" stroke-miterlimit="10" x1="75.45" y1="75.45" x2="75.45" y2="109.45"/>
	<text transform="matrix(1 0 0 1 70.1651 27.523)" font-family="'MyriadPro-BoldCond'" font-size="12">12</text>
</g>
<g id="Central_axis">
	<linearGradient id="SVGID_2_" gradientUnits="userSpaceOnUse" x1="75.4495" y1="75.1453" x2="75.4495" y2="85.7141">
		<stop  offset="0" style="stop-color:#FFFFFF"/>
		<stop  offset="0.104" style="stop-color:#FAFAFA"/>
		<stop  offset="0.2277" style="stop-color:#ECECEC"/>
		<stop  offset="0.3614" style="stop-color:#D4D4D4"/>
		<stop  offset="0.5022" style="stop-color:#B2B2B2"/>
		<stop  offset="0.6486" style="stop-color:#878787"/>
		<stop  offset="0.7997" style="stop-color:#525252"/>
		<stop  offset="0.9519" style="stop-color:#151515"/>
		<stop  offset="1" style="stop-color:#000000"/>
	</linearGradient>
	<circle fill="url(#SVGID_2_)" stroke="#000000" stroke-width="2" stroke-miterlimit="10" cx="75.45" cy="78.45" r="5.284"/>
</g>
<g id="Compasses">
	<line fill="none" stroke="#000000" stroke-width="2" stroke-miterlimit="10" x1="80.305" y1="73.724" x2="115.35" y2="40.192"/>
</g>
<g id="Numbers">
	<text transform="matrix(1 0 0 1 97.6605 33.9451)" font-family="'MyriadPro-BoldCond'" font-size="12">1</text>
	<text transform="matrix(1 0 0 1 117.4495 51.1191)" font-family="'MyriadPro-BoldCond'" font-size="12">2</text>
	<text transform="matrix(1 0 0 1 126.6052 76.1651)" font-family="'MyriadPro-BoldCond'" font-size="12">3</text>
	<text transform="matrix(1 0 0 1 122.5937 103.835)" font-family="'MyriadPro-BoldCond'" font-size="12">4</text>
	<text transform="matrix(1 0 0 1 103.4495 126.4495)" font-family="'MyriadPro-BoldCond'" font-size="12">5</text>
	<text transform="matrix(1 0 0 1 75.4495 136.6971)" font-family="'MyriadPro-BoldCond'" font-size="12">6</text>
	<text transform="matrix(1 0 0 1 41.5412 126.4495)" font-family="'MyriadPro-BoldCond'" font-size="12">7</text>
	<text transform="matrix(1 0 0 1 23.0181 103.835)" font-family="'MyriadPro-BoldCond'" font-size="12">8</text>
	<text transform="matrix(1 0 0 1 17.4308 78.4495)" font-family="'MyriadPro-BoldCond'" font-size="12">9</text>
	<text transform="matrix(1 0 0 1 23.4308 51.1191)" font-family="'MyriadPro-BoldCond'" font-size="12">10</text>
	<text transform="matrix(1 0 0 1 41.2843 35.1748)" font-family="'MyriadPro-BoldCond'" font-size="12">11</text>
</g>
<g id="Text">
	<g>
		<path d="M17.813,159.004v14.151h-2.751v-14.151H17.813z"/>
		<path d="M19.955,170.342c0.566,0.315,1.532,0.546,2.33,0.546c1.302,0,1.932-0.672,1.932-1.596c0-1.029-0.63-1.533-1.826-2.31
			c-1.932-1.176-2.667-2.667-2.667-3.947c0-2.268,1.512-4.157,4.472-4.157c0.924,0,1.807,0.252,2.227,0.504l-0.441,2.373
			c-0.398-0.252-1.008-0.483-1.806-0.483c-1.176,0-1.743,0.714-1.743,1.47c0,0.84,0.42,1.281,1.953,2.205
			c1.869,1.133,2.562,2.561,2.562,4.052c0,2.583-1.911,4.283-4.683,4.283c-1.133,0-2.246-0.294-2.708-0.567L19.955,170.342z"/>
		<path d="M36.9,165.827c0,5.334-1.89,7.496-4.577,7.496c-3.213,0-4.473-3.401-4.473-7.285c0-3.863,1.533-7.202,4.662-7.202
			C35.934,158.836,36.9,162.595,36.9,165.827z M30.705,166.079c0,3.213,0.609,4.851,1.723,4.851c1.154,0,1.596-2.1,1.596-4.976
			c0-2.479-0.379-4.725-1.617-4.725C31.315,161.23,30.705,163.035,30.705,166.079z"/>
		<path d="M37.846,169.607c0-1.7,0.945-2.918,2.058-3.632v-0.042c-1.155-0.756-1.68-1.932-1.68-3.002
			c0-2.227,1.764-3.591,3.863-3.591c1.952,0,3.527,1.323,3.527,3.359c0,0.903-0.356,2.12-1.784,3.023v0.042
			c1.26,0.693,2.1,1.953,2.1,3.569c0,2.52-1.848,3.989-4.095,3.989C39.504,173.324,37.846,171.833,37.846,169.607z M43.263,169.439
			c0-1.28-0.798-2.12-1.575-2.52c-0.692,0.483-1.176,1.323-1.176,2.373c0,1.176,0.483,2.184,1.428,2.184
			C42.801,171.476,43.263,170.594,43.263,169.439z M40.807,162.847c0,0.965,0.545,1.637,1.344,2.057
			c0.588-0.314,0.944-1.154,0.944-1.952c0-0.924-0.315-1.764-1.112-1.764C41.184,161.188,40.807,162.007,40.807,162.847z"/>
		<path d="M53.826,161.566c-0.336,0.021-0.715,0.063-1.135,0.146c-1.805,0.399-2.708,1.911-3.044,3.633h0.063
			c0.482-0.65,1.196-1.092,2.1-1.092c1.848,0,3.086,1.658,3.086,4.241c0,2.394-1.218,4.829-3.885,4.829
			c-2.582,0-4.156-2.246-4.156-5.627c0-2.981,0.986-5.018,2.246-6.361c0.882-0.987,2.205-1.639,3.338-1.848
			c0.651-0.127,1.092-0.127,1.387-0.147V161.566z M52.188,168.474c-0.021-1.155-0.398-2.247-1.28-2.247
			c-0.44,0-0.86,0.294-1.112,0.924c-0.084,0.147-0.147,0.567-0.147,1.196c0,1.785,0.504,2.982,1.323,2.982
			C51.895,171.329,52.188,170.111,52.188,168.474z"/>
		<path d="M63.78,166.269c0,4.893-1.784,7.055-3.988,7.055c-2.982,0-3.99-3.422-3.99-6.929c0-3.927,1.26-7.055,4.095-7.055
			C63.045,159.34,63.78,163.015,63.78,166.269z M58.573,166.331c-0.041,3.191,0.357,4.641,1.281,4.641
			c0.861,0,1.154-1.512,1.154-4.641c0-2.918-0.272-4.64-1.154-4.64C58.993,161.692,58.552,163.161,58.573,166.331z"/>
		<path d="M68.022,162.091h-0.041l-2.311,1.196l-0.461-2.163l3.128-1.616h2.415v13.647h-2.73V162.091z"/>
		<path d="M78.018,166.374v1.973H73.84v-1.973H78.018z"/>
		<path d="M79.867,159.004h2.751v11.821h3.632v2.33h-6.383V159.004z"/>
		<path d="M94.985,167.991c0,4.283-2.372,5.333-3.926,5.333c-2.457,0-3.926-1.932-3.926-5.27c0-3.695,1.932-5.334,3.968-5.334
			C93.516,162.72,94.985,164.757,94.985,167.991z M89.862,167.991c0,1.764,0.273,3.233,1.26,3.233c0.883,0,1.113-1.722,1.113-3.233
			c0-1.407-0.23-3.191-1.154-3.191C90.073,164.799,89.862,166.583,89.862,167.991z"/>
		<path d="M102.231,172.988c-0.273,0.126-0.967,0.294-1.743,0.294c-2.604,0-4.304-1.806-4.304-5.165c0-3.17,1.868-5.375,4.703-5.375
			c0.65,0,1.238,0.146,1.512,0.273l-0.357,2.162c-0.23-0.084-0.566-0.189-1.029-0.189c-1.322,0-2.1,1.26-2.1,3.045
			c0,1.869,0.777,3.002,2.059,3.002c0.398,0,0.734-0.063,1.028-0.209L102.231,172.988z"/>
		<path d="M108.237,173.156l-0.146-1.008h-0.042c-0.567,0.798-1.364,1.176-2.268,1.176c-1.554,0-2.708-1.302-2.708-3.129
			c0-2.688,2.372-3.8,4.703-3.82v-0.231c0-0.798-0.483-1.386-1.449-1.386c-0.818,0-1.49,0.21-2.1,0.588l-0.504-1.848
			c0.566-0.336,1.764-0.777,3.191-0.777c3.129,0,3.633,2.184,3.633,4.263v3.821c0,0.818,0.041,1.658,0.168,2.352H108.237z
			 M107.86,168.159c-0.924,0.021-2.184,0.315-2.184,1.743c0,1.028,0.566,1.406,0.986,1.406c0.441,0,0.945-0.273,1.134-0.882
			c0.042-0.147,0.063-0.315,0.063-0.483V168.159z"/>
		<path d="M112.5,158.626h2.75v14.529h-2.75V158.626z"/>
		<path d="M119.975,160.16c0.021,0.881-0.608,1.49-1.448,1.49c-0.756,0-1.386-0.609-1.364-1.49c-0.021-0.924,0.65-1.491,1.406-1.491
			C119.367,158.668,119.975,159.236,119.975,160.16z M117.225,173.156v-10.268h2.75v10.268H117.225z"/>
		<path d="M121.321,171.434l2.52-4.577c0.336-0.588,0.777-1.26,0.966-1.658v-0.063h-3.171v-2.247h6.174v1.869l-2.457,4.409
			c-0.357,0.608-0.756,1.26-0.986,1.68v0.063h3.527v2.246h-6.572V171.434z"/>
		<path d="M131.42,168.998c0.043,1.596,0.967,2.184,2.184,2.184c0.777,0,1.471-0.168,1.953-0.336l0.378,1.974
			c-0.714,0.273-1.784,0.462-2.835,0.462c-2.792,0-4.324-1.848-4.324-5.06c0-3.443,1.784-5.502,4.115-5.502
			c2.204,0,3.484,1.743,3.484,4.851c0,0.735-0.021,1.134-0.084,1.428H131.42z M133.877,167.067c0-1.323-0.336-2.352-1.154-2.352
			c-0.903,0-1.26,1.323-1.281,2.352H133.877z"/>
		<path d="M137.91,165.975c0-1.028-0.043-2.142-0.084-3.087h2.393l0.147,1.491h0.063c0.461-1.092,1.28-1.659,2.036-1.659
			c0.272,0,0.42,0,0.588,0.043v2.729c-0.168-0.041-0.356-0.041-0.588-0.041c-0.588,0-1.364,0.398-1.68,1.469
			c-0.063,0.231-0.104,0.588-0.104,1.029v5.207h-2.771V165.975z"/>
	</g>
</g>
</svg>
